#!OML:ASF I:\Actors\actors\Patient Classification 2\Patient 1\Session 1\actor1.ASF
:FULLY-SPECIFIED
:DEGREES
355
root -0.903079 18.0691 5.59105 -0.31436 0.675466 -3.52701
lowerback 17.4778 -0.16412 0.635406
upperback 7.397 -0.0494495 1.82218
thorax -1.8894 -0.0412171 1.56763
lowerneck -11.7894 -12.1763 -11.2769
upperneck 6.57211 -15.732 11.0728
head 5.66578 -7.39606 3.72165
rclavicle -3.926e-015 8.74653e-015
rhumerus -43.1115 57.8826 -59.5171
rradius 114.204
rwrist -30.5489
rhand -6.73198 -37.3543
rfingers 7.12502
rthumb 19.1286 -66.4336
lclavicle -3.926e-015 8.74653e-015
lhumerus -26.8419 -71.7632 52.2143
lradius 113.836
lwrist 58.1007
lhand -4.59816 2.50757
lfingers 7.12502
lthumb 21.1795 31.3706
rfemur 17.9896 -3.40514 18.5882
rtibia -18.6787
rfoot -8.28586 -20.1118
rtoes -0.625326
lfemur 19.8468 -3.82505 -12.45
ltibia -26.3788
lfoot 7.3841 12.3535
ltoes -13.8529
356
root -0.89861 18.0972 5.5155 0.68969 0.956929 -3.41813
lowerback 18.1216 -0.112424 0.72762
upperback 7.66197 0.0381642 1.75081
thorax -1.94338 0.00488441 1.42683
lowerneck -12.5022 -11.534 -10.3784
upperneck 5.98469 -14.7854 10.22
head 5.35558 -6.95088 3.43423
rclavicle -5.5287e-015 -1.49089e-015
rhumerus -37.5434 58.0875 -56.1819
rradius 111.716
rwrist -28.6688
rhand -8.3559 -37.1799
rfingers 7.12502
rthumb 17.5664 -66.4063
lclavicle -5.5287e-015 -1.49089e-015
lhumerus -17.4835 -71.6662 45.2195
lradius 110.41
lwrist 55.2956
lhand -6.32947 1.13544
lfingers 7.12502
lthumb 19.5156 30.176
rfemur 16.6523 -3.62943 18.5225
rtibia -18.7221
rfoot -8.09563 -20.3341
rtoes -0.0506821
lfemur 18.3185 -3.67845 -12.4502
ltibia -26.3023
lfoot 7.75484 12.2698
ltoes -13.5579
357
root -0.89348 18.1234 5.44355 1.71802 1.26015 -3.32293
lowerback 18.5901 -0.0722477 0.886434
upperback 7.92632 0.118589 1.65511
thorax -1.90432 0.0494894 1.22185
lowerneck -13.2278 -11.0662 -9.64931
upperneck 5.42077 -14.0964 9.58926
head 5.12523 -6.62277 3.2011
rclavicle -2.70844e-015 1.02871e-014
rhumerus -32.044 57.6715 -53.1888
rradius 108.997
rwrist -26.5334
rhand -9.9251 -37.3547
rfingers 7.12502
rthumb 16.0558 -66.7094
lclavicle -2.70844e-015 1.02871e-014
lhumerus -8.3095 -70.9179 38.5681
lradius 106.802
lwrist 50.765
lhand -8.40313 -0.838004
lfingers 7.12502
lthumb 17.5209 28.3925
rfemur 15.3538 -3.77404 18.4979
rtibia -18.8741
rfoot -7.8856 -20.701
rtoes 0.306516
lfemur 16.7728 -3.70176 -12.4484
ltibia -26.2041
lfoot 8.13511 12.266
ltoes -12.9781
358
root -0.891895 18.1472 5.38005 2.68797 1.4307 -3.21758
lowerback 18.9953 0.00110093 0.95694
upperback 8.15157 0.226964 1.56211
thorax -1.87277 0.106323 1.06316
lowerneck -13.7234 -10.5349 -9.21697
upperneck 4.80749 -13.344 9.34396
head 4.89664 -6.25625 3.14486
rclavicle -8.54774e-015 -1.38901e-014
rhumerus -26.4511 56.9264 -50.2389
rradius 106.116
rwrist -25.1095
rhand -11.6088 -37.9021
rfingers 7.12502
rthumb 14.434 -67.3801
lclavicle -8.54774e-015 -1.38901e-014
lhumerus -0.454246 -69.4807 33.4392
lradius 102.956
lwrist 45.3013
lhand -10.5713 -3.2235
lfingers 7.12502
lthumb 15.4334 26.1803
rfemur 14.1671 -3.82527 18.4737
rtibia -19.0904
rfoot -7.57991 -21.0463
rtoes 0.404289
lfemur 15.3659 -3.62532 -12.4671
ltibia -26.1244
lfoot 8.52272 12.2062
ltoes -12.6365
359
root -0.892721 18.1625 5.32209 3.45484 1.47299 -3.09292
lowerback 19.5513 0.117573 0.881491
upperback 8.3456 0.369692 1.4953
thorax -1.95114 0.176287 1.00694
lowerneck -13.7855 -9.88703 -8.93709
upperneck 3.8892 -12.4533 9.32459
head 4.52476 -5.82874 3.2168
rclavicle 4.69629e-015 -5.46658e-015
rhumerus -21.0504 55.7989 -47.4593
rradius 103.175
rwrist -24.2362
rhand -13.2313 -38.2076
rfingers 7.12502
rthumb 12.8702 -67.7908
lclavicle 4.69629e-015 -5.46658e-015
lhumerus 5.54816 -67.4251 30.3446
lradius 99.1054
lwrist 40.9741
lhand -12.6469 -5.32834
lfingers 7.12502
lthumb 13.4336 24.2185
rfemur 13.2307 -3.89688 18.4046
rtibia -19.3357
rfoot -7.17603 -21.2588
rtoes 0.330193
lfemur 14.2633 -3.47486 -12.5351
ltibia -26.0958
lfoot 8.81621 12.1975
ltoes -12.6325
360
root -0.891557 18.1736 5.26724 3.95526 1.4743 -3.01057
lowerback 20.2452 0.314386 0.925872
upperback 8.6629 0.640369 1.52137
thorax -1.96576 0.310322 0.952356
lowerneck -13.9847 -9.43236 -8.97257
upperneck 2.87252 -11.7639 9.4315
head 4.19204 -5.49442 3.34303
rclavicle 5.41688e-015 3.18055e-015
rhumerus -15.8982 53.4238 -44.6404
rradius 100.558
rwrist -25.3132
rhand -13.1072 -38.6926
rfingers 7.12502
rthumb 12.9898 -68.2682
lclavicle 5.41688e-015 3.18055e-015
lhumerus 10.6262 -64.8022 28.665
lradius 95.3895
lwrist 38.7589
lhand -14.2926 -6.71513
lfingers 7.12502
lthumb 11.847 22.9297
rfemur 12.5976 -3.96368 18.3514
rtibia -19.5874
rfoot -6.77682 -21.417
rtoes 0.297528
lfemur 13.5026 -3.47562 -12.5958
ltibia -26.0954
lfoot 9.0229 12.3423
ltoes -12.8023
